<?xml version="1.0" encoding="utf-8"?>
<svg xmlns="http://www.w3.org/2000/svg" viewBox="0 0 350 350">
<g>
	<path d="M175 5C81.1 5 5 81.1 5 175 5 268.9 81.1 345 175 345 268.9 345 345 268.9 345 175 345 81.1 268.9 5 175 5zM175 17C262.3 17 333 87.7 333 175 333 262.3 262.3 333 175 333 87.7 333 17 262.3 17 175 17 87.7 87.7 17 175 17z"/>
	<path d="m145.6 282.1v-13.1l-6.7-2.5C118.3 258.7 99.7 241.7 89.4 221.2 78.2 198.8 76.5 166.8 85.3 142.2 94.4 116.6 115.9 94.9 141.8 85.2l3.8-1.4V70.3 56.8H156 166.4V67.8 78.9l12.8 0 12.8 0 0-11 0-11h10.4 10.4v13.2 13.2l2.2 0.9c13.1 5.3 23.6 11.8 32.6 20.1l5.6 5.1-8.8 9.5c-4.8 5.2-9 9.6-9.4 9.8-0.4 0.1-2.5-1.4-4.7-3.4-8.9-8-19.1-13.6-30-16.6-9.3-2.5-29.1-2.6-38.9-0.1-26 6.6-45.2 26.1-50.4 51.3-1.9 9.3-1.7 26 0.6 34.5 3.6 13.7 12.9 28 24.1 36.8 8.3 6.6 23.3 13.6 29.3 13.6 0.8 0 1-8.1 1-42.6V159.6h13.2 13.2l0.2 13.6 0.2 13.6 2.7-4c4.7-6.9 10-12.2 17.2-17 7.6-5.1 12.4-7.1 19-7.8L236 157.4V172.3 187.2h-4.2c-12.3 0-23.2 6.1-30.3 17.1-5.5 8.5-8 17.6-9.1 32.7-0.6 9.2-1 8.9 8.8 5.6 8.3-2.8 17-7.9 24.6-14.2l6-5 8.9 8.9c4.9 4.9 8.9 9.3 8.9 9.8 0 1.1-7.7 8.2-14 12.9-5.9 4.3-13.9 9-19 11.1l-3.8 1.5 0 13.8 0 13.8H202.4 192v-11.3-11.3l-1.8 0.5c-1 0.3-6.7 0.5-12.8 0.5l-11 0v10.8 10.8H156 145.6Z"/>
</g>
</svg>