<?xml version="1.0" encoding="utf-8" standalone="no"?><svg xmlns="http://www.w3.org/2000/svg" viewBox="0 0 473 105"><defs><linearGradient id="a" x2="0" y2="1"><stop offset=".55" stop-color="#fff"/><stop offset=".75" stop-color="#c0d0e0" stop-opacity=".65"/></linearGradient><filter id="b"><feTurbulence type="fractalNoise" baseFrequency=".05" numOctaves="7" result="c"/><feDiffuseLighting in="c" surfaceScale="112" result="d"><feDistantLight azimuth="125" elevation="135"/></feDiffuseLighting><feComposite in="d" in2="SourceAlpha" operator="in" result="e"/><feMerge><feMergeNode in="e"/><feMergeNode in="SourceGraphic"/></feMerge></filter><filter id="f" color-interpolation-filters="sRGB"><feGaussianBlur in="SourceAlpha" stdDeviation="2" result="g"/><feOffset in="g" dx="0" dy="3" result="h"/><feFlood flood-color="#000" flood-opacity=".75" result="i"/><feComposite in="i" in2="h" operator="in" result="h"/><feBlend in="SourceGraphic" in2="h" mode="normal" /></filter></defs><path d="m11.875 95.906c-2.9655-1.662-5.8994-4.638-7.2103-7.312-1.9095-3.895-2.0154-5.424-0.7779-11.239 2.4176-11.359 11.707-20.281 16.754-16.092 1.215 1.009 1.859 3.825 1.859 8.13 0 5.983 0.28628 6.6583 3.125 7.3708 3.675 0.922 9.375-0.274 9.375-1.966 0-0.64965 3.1297-5.0548 6.9549-9.7892 4.9963-6.1838 7.899-8.7172 10.307-8.9958 3.0267-0.35016 3.4563-1.0553 4.4255-7.2628 0.59035-3.7812 1.6914-7.6328 2.4469-8.5591 0.75543-0.92623 5.01-3.4022 9.4545-5.5021l8.081-3.8181 2.0959 2.5884c2.7069 3.3429 14.873 4.4037 37.014 3.2275 11.324-0.60154 11.425-0.58066 14.185 2.9163 2.2888 2.8996 2.6851 4.6818 2.2421 10.083-0.29595 3.6086-0.35716 6.3801-0.13604 6.159 0.22114-0.22113 1.6748-2.8089 3.2304-5.7505 1.5556-2.9417 5.1952-7.063 8.0881-9.1586 4.579-3.317 6.7438-3.9331 16.725-4.7599 8.6202-0.71405 12.342-1.5981 14.999-3.5629 6.09-4.497 9.89-2.686 9.89 4.705 0 4.2967 0.0132 4.3067 2.6034 1.9627 1.9106-1.7291 5.403-2.5737 13.124-3.1741 10.04-0.7807 11.325-1.2399 18.823-6.726 1.1408-0.83473 2.4189-0.7913 3.8872 0.13208 1.7598 1.1067 2.2585 3.5125 2.5505 12.305 0.23184 6.9807-0.16216 11.562-1.0906 12.68-1.167 1.4062-0.94212 1.7514 1.141 1.7514 1.8505 0 3.2685-1.5236 4.9446-5.3125 2.5935-5.863 10.012-13.084 14.352-13.971 1.5343-0.31352 6.5267-0.81457 11.094-1.1135 5.5944-0.36608 10.001-1.4966 13.501-3.464 8.06-4.5299 9.3636-2.9596 9.8019 11.807 0.28509 9.6059 0.73075 12.055 2.1938 12.055 1.842 0 1.8248-9.1288-0.0619-32.788-0.67955-8.5212 0.68745-12.686 5.9572-18.149 3.0268-3.138 4.9657-4.0625 8.5203-4.0625 2.531 0 5.1794 0.70312 5.8854 1.5625 0.70601 0.85938 1.9893 13.234 2.8517 27.5 0.90775 15.016 2.0832 25.938 2.7915 25.938 0.73989 0 0.92075-2.594 0.45758-6.5625-0.42125-3.6094-1.1459-13.716-1.6104-22.459l-0.85-15.898 5.04-5.0408c3.97-3.9652 5.98-5.0412 9.41-5.0412 2.403 0 4.9475 0.70312 5.6545 1.5625 1.1 1.3247 4.03 24.034 4.03 31.154 0 2.0789 1.2916 2.2829 14.457 2.2829 7.9657 0 15.59 0.60645 16.981 1.3506 3.193 1.7089 6.062 8.4804 6.062 14.308 0 2.6743 0.5053 4.1766 1.25 3.7164 0.6875-0.4249 1.25-2.0443 1.25-3.5988 0-3.6109 7.5874-12.526 12.137-14.262 1.9182-0.73164 7.5084-1.5738 12.423-1.8714 6.498-0.39356 9.9598-1.271 12.693-3.2172 4.2547-3.0296 7.1302-3.4015 8.611-1.1135 0.5562 0.85938 1.8596 6.625 2.8964 12.812l1.8852 11.25 6.2081 0.39246c3.4144 0.21585 6.8342 0.91206 7.5994 1.5471 0.76521 0.63507 2.0966 5.1013 2.9586 9.9249 1.3752 7.6954 1.9476 8.8657 4.6701 9.549 1.7065 0.42831 4.4676 0.15692 6.1356-0.6031 2.6097-1.189 3.0328-2.2363 3.0328-7.5056 0-4.0226 0.66895-6.6789 1.9497-7.7418 5.2133-4.3267 15.454 6.3499 16.462 17.162 0.62466 6.7049-2.2293 12.281-8.7639 17.122-4.3027 3.1877-18.359 4.2919-25.471 2.0008-6.5522-2.1109-14.964-9.1658-17.982-15.08l-2.49-4.89h-32.322c-24.341 0-32.638-0.38579-33.602-1.5625-0.70405-0.85938-1.6822-5.3594-2.1737-10l-0.89359-8.4375h-6.9107-6.9107l0.71985 8.5864c0.47216 5.632 0.23348 9.0728-0.6937 10-1.04 1.029-31.32 1.413-111.64 1.413-92.896 0-110.45-0.27479-111.67-1.7482-0.98115-1.1822-1.1772-4.4197-0.60544-10 0.70753-6.9058 0.53692-8.2518-1.0459-8.2518-1.932 0-3.4539 4.9034-3.4539 11.128 0 1.8236-0.87565 4.5658-1.9459 6.0938-1.7722 2.5301-2.9773 2.7781-13.5 2.7781-6.6534 0-12.131-0.57638-12.913-1.3589-0.97855-0.97855-1.594-0.97855-2.1988 0-0.46 0.747-4.076 1.359-8.034 1.359-7.0268 0-7.2587 0.11141-9.8577 4.7357-3.174 5.648-11.442 12.568-17.678 14.798-7.474 2.671-19.942 2.125-25.745-1.128zm191.42-68.497c-4.8992-3.8537-4.6414-11.053 0.55234-15.423 4.8683-4.0964 8.6898-4.0964 13.558 0 2.8734 2.4178 3.8459 4.2862 3.8459 7.3889s-0.97251 4.9711-3.8459 7.3889c-4.646 3.9093-9.669 4.1391-14.111 0.64539zm136.8-0.64539c-4.9702-4.1821-5.2952-10.428-0.77772-14.946 4.0469-4.0469 9.4014-3.9842 14.336 0.16794 3.0646 2.5787 3.8459 4.2109 3.8459 8.0343 0 9.1523-9.9566 13.01-17.404 6.7435z" fill="#000" fill-opacity=".5" filter="url(#f)"/><path d="m13.767 92.575c-5.758-3.065-7.4468-7.361-5.9232-15.066 1.1376-5.754 6.6732-13.759 9.5152-13.759 0.68728 0 1.185 2.8365 1.106 6.3034-0.16697 7.3302 1.5823 9.7112 7.8719 10.715 5.2032 0.83005 10.906-1.167 12.134-4.2495 0.49717-1.2473 3.4278-5.4743 6.5125-9.3932 4.705-5.976 6.245-7.125 9.553-7.125 4.2994 0 4.5384-0.45173 6.1513-11.626 0.84358-5.8445 1.0583-6.0929 8.2147-9.5015l7.348-3.5v3.6977c0 3.0744 0.36873 3.5269 2.1875 2.6841 1.2031-0.55747 6.1839-1.2217 11.068-1.4761 6.6005-0.34379 9.3491 0.0056 10.704 1.3611 1.55 1.55 2.2806 1.5705 4.8692 0.1367 1.7388-0.9631 6.9152-1.7059 12.064-1.7312 11.059-0.05431 12.272 1.3369 10.967 12.577l-0.86 7.378h4.4977c2.6317 0 4.4977-0.61416 4.4977-1.4803 0-3.5826 5.339-11.899 9.4065-14.653 3.4862-2.3598 6.8924-3.2108 15.808-3.9493 8.5257-0.70622 12.248-1.5942 14.899-3.5546 1.944-1.4372 3.9193-2.6132 4.3896-2.6132 0.47032 0 0.5537 5.9062 0.18527 13.125l-0.67 13.125h3.4442c3.3489 0 3.4628-0.23154 4.1155-8.363 0.81-10.076 2.4-11.637 11.86-11.637 9.0651 0 17.622-2.3053 19.15-5.1587 2.6327-4.9192 3.7637-2.2701 3.4031 7.9712l-0.36305 10.312h-9.6896c-8.3199 0-9.6893 0.303-9.6875 2.1435 0 3.569 4.24 4.732 17.22 4.732h12.384l1.4812-4.9437c1.8281-6.1015 6.4881-11.803 11.077-13.552 1.9046-0.72597 7.5032-1.5649 12.442-1.8642 6.1598-0.3734 10.401-1.3835 13.509-3.2172 2.49-1.47 4.78-2.673 5.09-2.673 0.30445 0 0.55355 5.9062 0.55355 13.125v13.125h5.68 5.68l-0.73667-17.812c-0.4-9.797-0.98-19.36-1.27-21.251-1.11-7.092 4.82-15.937 10.68-15.937 3.3317 0 3.3514 0.054835 4.1405 11.562 0.43606 6.3594 1.1673 18.734 1.625 27.5l0.83 15.938h4.9939 4.9939l-0.83927-10.919c-0.4616-6.0053-1.1901-16.653-1.619-23.662l-0.78-12.742 3.84-3.8386c2.19-2.1864 5.15-3.8384 6.89-3.8384 3.4287 0 3.7695 1.5904 5.4125 25.26 0.77365 11.145 1.0248 12.037 3.0794 10.938 1.23-0.659 8.42-1.198 15.98-1.198 17.334 0 17.88 0.44376 19.216 15.625 0.28248 3.2092 0.89938 3.8053 4.2777 4.1331 3.5647 0.34597 4.0357-0.01781 4.8555-3.75 0.49929-2.2732 0.69378-4.1331 0.43219-4.1331-0.26157 0 0.8322-1.8366 2.4306-4.0814 4.0406-5.6745 8.0873-7.3811 19.113-8.0606 7.2558-0.44716 10.479-1.2634 13.509-3.4215 2.1892-1.5588 4.1473-2.6323 4.3514-2.3854 0.20406 0.24688 1.0598 4.9489 1.9017 10.449 2.56 16.76 1.83 15.625 10.1 15.625h7.2472l0.96727 6.5625c0.53202 3.6094 1.0616 7.125 1.1769 7.8125 0.11525 0.6875 0.2953 1.8628 0.40002 2.6119 0.26768 1.9147 5.8754 4.2631 10.18 4.2631 1.9933 0 5.1482-1.3132 7.0172-2.9209 2.826-2.4309 3.381-3.8989 3.3076-8.75-0.0974-6.4425 0.90179-7.1133 4.7956-3.2195 8.641 8.641 6.9312 22.598-3.2916 26.87-13.285 5.5508-31.212-1.2779-36.386-13.86l-2.307-5.6099-33.352-0.0047-33.352-0.0047-0.86492-9.9153-0.86491-9.9153-11.003-0.39725-11.003-0.39725 0.58219 6.25c0.3202 3.4375 0.80552 8.0781 1.0785 10.312l0.4963 4.0625h-109.41-109.41l0.66866-4.6875c0.36775-2.5781 0.99307-7.2188 1.3896-10.312l0.72095-5.625h-6.1676-6.1676l-0.8136 8.125c-1.3228 13.21-0.59685 12.5-12.783 12.5h-10.704l0.7748-4.6875c0.42614-2.5781 0.78099-5.6719 0.78855-6.875 0.018-1.47 1.004-2.187 3.014-2.187 2.805 0 4.509-2.047 4.509-5.415 0-0.914-2.28-1.46-6.095-1.46h-6.0952l-1.5342 10.312-1.5342 10.312h-7.7091-7.7091l-2.9914 5.4759c-3.4287 6.2765-9.7355 11.742-16.226 14.063-6.6181 2.3658-17.447 2.0238-22.589-0.71346zm151.23-36.013c0.00051-3.2344-0.30925-3.4261-5.242-3.2444-3.423 0.12608-5.8093 0.96821-6.8756 2.4264-2.68 3.67-1.96 4.256 5.24 4.256 6.6665 0 6.875-0.10424 6.8756-3.4375zm96.25 0c0.00051-3.2344-0.30925-3.4261-5.242-3.2444-3.423 0.12608-5.8093 0.96821-6.8756 2.4264-2.68 3.67-1.96 4.256 5.25 4.256 6.6665 0 6.875-0.10424 6.8756-3.4375zm140 0c0.00051-3.1974-0.34235-3.4248-4.908-3.2557-6 0.223-7.59 1.119-7.59 4.268 0 2.078 0.9 2.426 6.25 2.426 5.9847 0 6.25-0.14591 6.2506-3.4375zm-195.31-31.662c-3.4431-2.0054-2.8213-8.177 1.0815-10.734 2.9279-1.9185 3.6127-1.95 6.5625-0.30189 4.4269 2.4733 5.0377 7.7105 1.2117 10.39-3.2626 2.2852-5.7319 2.4652-8.8557 0.64574zm136.84-0.596c-3.2401-2.2695-3.6331-7.0206-0.81385-9.8398 4.1758-4.1758 11.786-0.5841 11.786 5.5626 0 5.7115-5.7332 7.9465-10.972 4.2772z" fill="url(#a)" filter="url(#b)"/><path d="m205.94 24.9c-3.4431-2.0054-2.8213-8.177 1.0815-10.734 2.9279-1.9185 3.6127-1.95 6.5625-0.30189 4.4269 2.4733 5.0377 7.7105 1.2117 10.39-3.2626 2.2852-5.7319 2.4652-8.8557 0.64574zm136.84-0.596c-3.2401-2.2695-3.6331-7.0206-0.81385-9.8398 4.1758-4.1758 11.786-0.5841 11.786 5.5626 0 5.7115-5.7332 7.9465-10.972 4.2772z" fill="url(#a)" filter="url(#b)"/></svg>